<svg width="466" height="445" viewBox="0 0 466 445" fill="none" xmlns="http://www.w3.org/2000/svg">
<path d="M226.343 5.48937C228.438 -0.959804 237.562 -0.959817 239.657 5.48936L289.802 159.819C290.739 162.703 293.427 164.656 296.459 164.656H458.731C465.512 164.656 468.331 173.333 462.845 177.319L331.565 272.699C329.112 274.482 328.085 277.642 329.022 280.526L379.167 434.855C381.262 441.304 373.881 446.667 368.395 442.681L237.115 347.301C234.661 345.518 231.339 345.518 228.886 347.301L97.6051 442.681C92.1191 446.667 84.7378 441.304 86.8332 434.855L136.978 280.526C137.915 277.642 136.888 274.482 134.435 272.699L3.15461 177.319C-2.33138 173.333 0.488031 164.656 7.26909 164.656H169.541C172.573 164.656 175.261 162.703 176.198 159.819L226.343 5.48937Z" fill="#FBD60A"/>
</svg>
